<?xml version="1.0" standalone="no"?>
<!DOCTYPE svg PUBLIC "-//W3C//DTD SVG 20010904//EN"
 "http://www.w3.org/TR/2001/REC-SVG-20010904/DTD/svg10.dtd">
<svg version="1.0" xmlns="http://www.w3.org/2000/svg"
 width="901.000000pt" height="891.000000pt" viewBox="0 0 901.000000 891.000000"
 preserveAspectRatio="xMidYMid meet">

<g transform="translate(0.000000,891.000000) scale(0.100000,-0.100000)"
fill="#000000" stroke="none">
<path d="M2080 7840 c-13 -9 -13 -11 0 -20 22 -15 30 -12 30 10 0 22 -8 25
-30 10z"/>
<path d="M4631 7488 c-1 -15 4 -30 9 -33 12 -7 12 12 0 40 -8 18 -9 17 -9 -7z"/>
<path d="M3745 7400 c-8 -14 3 -30 21 -30 8 0 14 9 14 20 0 21 -24 28 -35 10z"/>
<path d="M1980 7360 c0 -5 12 -10 26 -10 14 0 23 4 19 10 -3 6 -15 10 -26 10
-10 0 -19 -4 -19 -10z"/>
<path d="M4660 7290 c0 -5 5 -10 11 -10 5 0 7 5 4 10 -3 6 -8 10 -11 10 -2 0
-4 -4 -4 -10z"/>
<path d="M4422 7266 c1 -10 8 -17 13 -17 15 1 12 24 -3 29 -9 3 -13 -2 -10
-12z"/>
<path d="M4670 7246 c0 -9 5 -16 10 -16 6 0 10 4 10 9 0 6 -4 13 -10 16 -5 3
-10 -1 -10 -9z"/>
<path d="M4725 7181 c-3 -5 -1 -12 5 -16 5 -3 10 1 10 9 0 18 -6 21 -15 7z"/>
<path d="M4300 7139 c0 -5 5 -7 10 -4 6 3 10 8 10 11 0 2 -4 4 -10 4 -5 0 -10
-5 -10 -11z"/>
<path d="M4765 7030 c-3 -5 -1 -10 4 -10 6 0 11 5 11 10 0 6 -2 10 -4 10 -3 0
-8 -4 -11 -10z"/>
<path d="M4410 7020 c0 -5 5 -10 10 -10 6 0 10 5 10 10 0 6 -4 10 -10 10 -5 0
-10 -4 -10 -10z"/>
<path d="M4840 6930 c0 -5 5 -10 10 -10 6 0 10 5 10 10 0 6 -4 10 -10 10 -5 0
-10 -4 -10 -10z"/>
<path d="M4900 6880 c0 -5 5 -10 10 -10 6 0 10 5 10 10 0 6 -4 10 -10 10 -5 0
-10 -4 -10 -10z"/>
<path d="M4150 6840 c0 -5 5 -10 11 -10 5 0 7 5 4 10 -3 6 -8 10 -11 10 -2 0
-4 -4 -4 -10z"/>
<path d="M4980 6760 c0 -5 5 -10 10 -10 6 0 10 5 10 10 0 6 -4 10 -10 10 -5 0
-10 -4 -10 -10z"/>
<path d="M5020 6680 c0 -5 5 -10 11 -10 5 0 7 5 4 10 -3 6 -8 10 -11 10 -2 0
-4 -4 -4 -10z"/>
<path d="M2664 6576 c-64 -64 -62 -94 13 -143 94 -64 109 -118 68 -253 -31
-104 -8 -242 61 -360 88 -151 258 -261 527 -341 76 -22 75 -19 37 -104 -21
-46 -51 -157 -45 -163 3 -3 14 6 25 19 l21 24 -7 -25 c-28 -99 -34 -134 -33
-200 1 -112 13 -130 28 -39 6 40 16 80 21 88 16 27 24 -61 12 -145 -15 -102
-15 -176 0 -228 17 -62 28 -66 29 -10 1 85 15 11 23 -122 4 -72 13 -141 24
-170 l17 -49 6 40 c3 22 7 36 8 32 0 -5 13 -67 27 -138 l26 -129 -36 -40 c-19
-22 -38 -51 -42 -66 -7 -28 31 -292 47 -328 6 -11 25 -32 44 -46 31 -23 34
-33 53 -132 20 -105 20 -107 1 -179 -25 -94 -24 -135 4 -206 l22 -58 5 60 5
60 9 -45 c4 -25 17 -66 28 -93 26 -60 19 -122 -20 -180 -15 -23 -57 -105 -92
-182 -35 -77 -80 -176 -100 -220 -62 -134 -119 -339 -120 -427 0 -43 18 -88
36 -88 29 0 138 157 448 647 45 71 82 120 89 116 6 -4 8 1 5 14 -3 11 2 30 11
42 16 21 16 21 75 -34 32 -30 61 -55 66 -55 4 0 5 20 2 45 -6 57 10 59 25 2
16 -57 45 -92 112 -135 59 -37 90 -69 91 -89 0 -7 5 -13 11 -13 11 0 9 19 -8
75 -3 12 15 0 48 -34 99 -98 168 -114 253 -61 48 31 161 90 171 90 3 0 2 -12
-1 -27 -6 -25 -1 -23 52 28 33 31 73 65 90 77 39 26 88 119 104 194 6 31 9 85
6 120 l-6 63 14 -40 c16 -45 20 -181 7 -237 -5 -21 -6 -38 -2 -38 4 0 22 16
41 35 41 43 48 44 42 5 -2 -16 -1 -38 3 -47 5 -15 9 -12 20 15 8 17 18 32 24
32 5 0 25 -28 44 -62 20 -35 90 -151 158 -258 67 -107 151 -242 187 -300 86
-140 131 -208 141 -215 5 -3 23 7 40 21 41 34 40 62 -5 211 -45 148 -136 372
-254 626 -56 118 -90 204 -87 214 3 10 15 43 26 73 15 41 20 80 21 152 l0 97
31 -11 c38 -13 50 -3 21 18 -45 31 -88 157 -76 222 5 26 25 56 65 100 32 34
65 75 73 90 7 15 21 84 31 154 18 138 13 178 -25 213 -31 28 -28 58 26 285 9
36 28 108 44 160 50 168 53 194 47 334 l-7 131 21 -33 c12 -18 23 -32 24 -30
1 2 -1 91 -5 198 -4 107 -7 195 -6 196 0 1 59 15 129 33 152 37 241 75 311
133 148 121 212 267 195 440 -18 177 -135 289 -318 305 -73 6 -189 -19 -268
-57 l-62 -31 -33 21 c-49 30 -72 25 -112 -22 -42 -48 -45 -76 -13 -113 l22
-27 -33 -71 c-19 -40 -36 -74 -38 -76 -5 -6 -121 97 -249 220 -142 137 -185
171 -258 204 -48 22 -177 46 -177 33 0 -3 25 -18 55 -33 30 -14 55 -30 55 -35
0 -5 -30 0 -67 11 -38 10 -120 33 -183 50 -71 19 -125 39 -140 53 -14 12 -36
29 -50 38 -27 16 -128 43 -136 36 -2 -3 13 -16 33 -29 35 -23 71 -83 55 -92
-4 -2 -40 5 -80 16 -93 25 -142 67 -142 120 0 24 7 43 22 57 31 28 19 32 -43
14 -68 -20 -159 -66 -222 -111 -27 -19 -51 -33 -53 -30 -2 2 14 31 36 65 22
34 36 62 31 62 -5 0 -35 -18 -67 -40 -112 -74 -193 -166 -249 -278 -19 -40
-38 -72 -42 -72 -3 0 -3 27 0 60 4 33 4 60 1 60 -13 0 -47 -103 -54 -165 -4
-38 -13 -83 -20 -100 l-11 -30 -19 52 c-50 142 -146 255 -267 316 -112 55
-207 68 -313 42 -35 -9 -86 43 -104 105 -28 93 -51 119 -105 120 -27 0 -43 -9
-77 -44z m66 11 c0 -2 -19 -19 -42 -37 l-43 -33 34 36 c30 32 51 46 51 34z
m54 -157 c33 -36 42 -50 33 -50 -2 0 -22 20 -45 45 -23 25 -38 45 -33 45 5 0
25 -18 45 -40z m1104 2 c-14 -15 -42 -52 -62 -82 -41 -62 -50 -52 -10 13 30
48 85 109 93 102 2 -3 -7 -18 -21 -33z m173 -24 c-20 -26 -31 -54 -31 -74 0
-58 84 -146 215 -225 42 -25 45 -28 20 -23 -74 15 -176 88 -226 160 -31 45
-36 82 -17 117 14 28 59 87 65 87 3 0 -9 -19 -26 -42z m94 -38 c-25 -49 -17
-88 28 -137 24 -26 12 -30 -21 -7 -26 18 -52 65 -52 93 0 17 44 81 56 81 3 0
-2 -13 -11 -30z m-249 -40 c-52 -58 -123 -169 -152 -236 l-25 -59 7 45 c10 69
57 151 126 224 68 71 104 92 44 26z m-758 6 c74 -20 156 -71 207 -130 49 -56
102 -154 111 -206 4 -28 0 -23 -20 24 -76 177 -217 295 -366 304 -58 3 -72 0
-125 -27 -54 -29 -57 -29 -30 -7 35 30 98 54 140 55 17 0 54 -6 83 -13z m1257
-80 c28 -18 91 -48 140 -66 104 -38 161 -65 171 -82 5 -8 2 -9 -12 -3 -10 4
-73 26 -139 50 -67 23 -131 48 -144 54 -32 17 -100 80 -113 104 -10 19 -9 19
18 -2 16 -12 52 -37 79 -55z m-1218 14 c124 -54 216 -178 242 -330 9 -49 -11
-218 -23 -187 -3 9 -9 25 -13 35 -4 11 -10 -6 -16 -46 -8 -54 -13 -64 -37 -77
-56 -29 -144 -15 -265 40 -63 28 -132 102 -171 180 -26 55 -29 69 -29 165 0
97 2 108 27 146 63 98 168 125 285 74z m1642 -2 c47 -14 124 -49 119 -53 -4
-5 -197 61 -206 70 -8 7 34 -1 87 -17z m-898 -193 l-6 -180 -14 60 c-15 68
-11 196 9 263 7 23 14 41 15 40 1 -2 -1 -84 -4 -183z m887 87 c40 -30 75 -70
111 -132 18 -30 43 -66 55 -80 l21 -24 -25 15 c-14 9 -42 40 -63 70 -72 105
-85 116 -186 168 -55 28 -103 55 -106 60 -8 14 161 -55 193 -77z m315 23 c47
-37 93 -92 85 -100 -2 -3 -40 32 -84 77 -82 85 -82 88 -1 23z m-1443 -67 c-55
-141 -61 -259 -19 -393 19 -63 83 -164 128 -202 14 -13 21 -23 14 -23 -7 0
-35 23 -63 51 -49 49 -100 135 -114 193 -4 15 -10 26 -13 23 -9 -9 18 -108 43
-159 13 -26 24 -50 24 -54 0 -15 -33 23 -52 60 -73 142 -61 327 33 507 23 44
43 78 45 76 2 -2 -10 -37 -26 -79z m1922 50 c-12 -12 -25 -18 -29 -14 -4 4 3
16 16 27 31 25 41 15 13 -13z m-977 -193 c44 -27 116 -85 161 -130 100 -100
137 -170 141 -265 l2 -65 -14 67 c-7 37 -26 88 -41 114 -46 78 -194 227 -210
211 -3 -3 20 -61 52 -129 48 -104 58 -134 62 -194 3 -42 0 -79 -6 -90 -10 -16
-11 -14 -12 16 0 53 -28 149 -56 198 -14 24 -70 88 -123 143 -53 54 -95 99
-93 99 2 0 31 -23 64 -50 33 -28 63 -49 65 -46 11 11 -67 109 -161 200 l-101
98 95 -63 c52 -35 131 -86 175 -114z m1464 155 c81 -41 116 -119 109 -243 -5
-104 -39 -179 -112 -253 -72 -71 -150 -106 -251 -112 -113 -5 -120 -1 -160 98
-19 46 -48 104 -66 129 -30 44 -31 46 -20 96 13 59 66 145 120 193 106 97 286
141 380 92z m-964 -68 c56 -34 94 -71 114 -112 17 -33 35 -100 27 -100 -2 0
-16 25 -32 56 -33 65 -86 115 -184 174 -39 22 -70 43 -70 45 0 7 104 -38 145
-63z m1110 -12 c31 -62 38 -114 25 -195 -13 -82 -38 -142 -81 -196 -46 -59
-54 -47 -10 16 45 64 73 162 73 256 0 52 -6 74 -36 132 -27 54 -31 65 -15 51
12 -11 31 -39 44 -64z m-2370 -234 c24 -91 72 -182 131 -252 30 -35 51 -64 46
-64 -18 0 -168 166 -204 225 -41 68 -68 151 -67 204 0 33 2 31 18 -24 10 -33
25 -76 34 -95 15 -30 16 -31 12 -8 -14 72 -17 153 -9 234 l8 89 7 -125 c4 -69
15 -152 24 -184z m238 152 c27 -27 51 -47 54 -45 2 3 -3 19 -12 37 -26 50 -11
46 22 -7 27 -43 46 -87 97 -233 15 -41 51 -109 93 -170 9 -14 -7 -3 -35 25
-42 39 -59 66 -83 130 -38 98 -102 199 -177 278 -68 71 -33 59 41 -15z m151
45 c76 -44 78 -46 145 -92 35 -24 83 -64 107 -88 67 -71 137 -218 158 -333 5
-31 5 -32 -5 -10 -48 113 -76 154 -146 220 -78 72 -84 85 -27 49 19 -11 34
-16 34 -11 0 19 -165 178 -235 227 -38 27 -74 52 -79 57 -19 16 2 8 48 -19z
m855 -83 c63 -73 131 -200 152 -283 15 -60 28 -45 30 33 1 43 3 49 9 30 15
-48 11 -138 -10 -190 -21 -53 -69 -135 -75 -128 -3 2 2 26 10 53 40 130 -11
301 -146 488 -27 37 -44 67 -39 67 5 0 36 -31 69 -70z m-2209 -159 c102 -103
211 -161 408 -214 46 -13 82 -27 80 -32 -8 -24 -188 24 -307 81 -119 58 -231
164 -279 264 -45 96 -49 127 -5 41 24 -48 62 -99 103 -140z m1992 142 c109
-65 169 -122 207 -192 39 -73 48 -139 27 -201 l-15 -45 6 45 5 45 -35 -50
c-19 -27 -54 -68 -77 -90 -48 -45 -44 -32 11 35 20 25 44 59 53 77 19 38 21
120 4 160 l-12 28 -6 -40 c-4 -22 -8 -30 -9 -17 -4 68 -93 177 -209 255 -31
22 -59 41 -62 45 -12 14 42 -13 112 -55z m458 -62 c22 -69 26 -126 10 -136 -6
-4 -10 9 -10 32 0 48 -21 125 -49 183 l-22 45 26 -30 c14 -16 34 -59 45 -94z
m-1876 19 c-7 -36 -14 -86 -14 -112 0 -26 -4 -50 -10 -53 -22 -14 -7 137 22
208 16 42 17 29 2 -43z m2079 17 c-3 -20 -10 -37 -15 -37 -5 0 -6 10 -3 23 4
12 9 30 12 40 8 31 13 13 6 -26z m-1441 -263 c54 -58 165 -149 281 -228 72
-48 71 -59 -1 -26 -65 30 -164 104 -250 188 -78 77 -141 179 -158 257 -4 17
12 -7 35 -52 23 -45 65 -108 93 -139z m-18 151 c20 -35 52 -85 71 -110 19 -25
35 -48 35 -52 0 -15 -83 74 -105 112 -21 36 -48 115 -40 115 2 0 20 -29 39
-65z m-339 -50 c12 -27 43 -77 69 -109 25 -33 44 -62 41 -65 -9 -8 -85 72
-105 109 -10 19 -23 55 -30 80 -19 76 -21 87 -9 60 6 -14 21 -47 34 -75z
m1808 2 c19 -23 41 -55 49 -72 15 -29 31 -95 24 -95 -2 0 -17 28 -34 63 -17
35 -54 89 -82 121 -27 31 -50 59 -50 62 0 12 62 -40 93 -79z m-1153 -84 c42
-70 83 -129 90 -131 9 -3 11 1 5 14 -4 11 -9 39 -11 64 l-4 45 18 -50 c11 -27
35 -86 56 -129 l36 -79 -48 44 c-97 90 -140 153 -207 305 -35 78 -25 66 65
-83z m-871 -58 c17 -33 44 -76 60 -96 39 -47 129 -94 216 -112 68 -15 61 -21
-19 -17 -97 5 -220 94 -271 197 -23 46 -29 74 -31 138 l-3 80 9 -65 c5 -35 23
-91 39 -125z m1302 78 c32 -68 32 -180 0 -243 -24 -47 -68 -100 -84 -100 -4 0
0 12 11 28 66 93 91 193 69 275 -8 28 -17 60 -22 70 -16 38 4 14 26 -30z
m-1384 -133 c9 -23 -32 31 -50 65 -8 17 -18 49 -22 70 -5 33 0 26 30 -40 20
-44 39 -87 42 -95z m2131 -9 c22 -45 27 -72 29 -136 2 -69 1 -74 -7 -34 -12
70 -46 127 -123 207 -39 39 -67 72 -62 72 4 0 30 -16 56 -35 27 -19 51 -35 54
-35 3 0 -6 21 -20 48 l-27 47 36 -39 c20 -22 49 -65 64 -95z m-1417 -98 c64
-81 154 -156 236 -198 71 -35 83 -31 40 13 -20 21 -37 41 -37 44 0 11 143 -31
194 -57 l50 -26 67 35 c51 27 86 37 139 42 74 7 80 3 54 -34 -14 -20 -14 -22
3 -22 57 0 178 106 222 193 l22 42 -6 -45 c-3 -25 -19 -74 -36 -109 -16 -35
-28 -66 -26 -68 2 -2 23 4 47 12 52 18 135 19 181 3 l34 -13 -55 -5 -55 -5 40
-22 c46 -24 104 -82 70 -68 -57 22 -59 16 -9 -36 52 -56 139 -169 129 -169 -3
0 -23 12 -45 26 -22 15 -43 24 -46 21 -3 -3 6 -26 21 -51 20 -35 25 -55 23
-93 -2 -39 -6 -47 -20 -45 -27 4 -22 -6 27 -69 57 -72 65 -95 65 -177 l-1 -67
-20 38 c-11 22 -22 37 -25 35 -2 -3 -1 -31 3 -64 5 -32 5 -84 2 -114 -3 -30
-6 -47 -7 -36 -1 10 -12 35 -24 54 -13 20 -30 56 -39 82 -14 41 -16 43 -21 19
-2 -15 2 -51 11 -80 16 -59 18 -114 6 -199 -7 -52 -5 -58 20 -88 15 -18 42
-39 60 -47 19 -7 41 -25 50 -39 15 -22 16 -33 6 -73 -15 -56 -35 -96 -73 -145
-33 -43 -30 -48 13 -17 65 46 5 -35 -63 -85 l-37 -28 -3 59 c-3 57 -4 58 -16
28 -14 -33 -76 -100 -106 -117 -12 -6 -5 7 17 32 43 51 46 63 12 50 -14 -5
-63 -9 -109 -9 -64 0 -95 -4 -128 -19 l-43 -20 60 -2 c33 -1 68 -5 78 -9 17
-6 16 -8 -9 -20 -36 -16 -194 -5 -194 13 0 7 16 31 36 55 20 23 34 44 31 47
-5 6 -96 -61 -114 -84 -11 -13 -19 -11 -72 16 -32 18 -73 32 -90 32 -31 0 -41
16 -22 36 4 5 16 30 25 55 17 44 17 49 -5 127 -12 45 -26 79 -30 76 -11 -6
-45 62 -60 120 -10 41 -29 64 -29 35 0 -6 -9 -8 -22 -3 -13 4 -29 7 -35 7 -8
0 -13 13 -13 31 -1 29 -1 30 -15 12 -15 -20 -108 -205 -145 -291 -27 -61 -22
-112 14 -164 l26 -36 -32 -6 c-18 -3 -57 -18 -87 -33 l-54 -28 -40 39 c-41 39
-41 39 -21 -27 5 -15 0 -21 -22 -27 -46 -13 -171 -10 -186 5 -10 9 4 12 66 12
44 0 75 4 71 9 -11 20 -104 41 -186 44 -46 2 -93 7 -103 12 -19 8 -19 8 0 -24
10 -18 35 -46 54 -62 38 -32 35 -37 -9 -15 -38 20 -77 74 -103 142 -20 52 -22
54 -31 33 -5 -13 -6 -50 -3 -82 l6 -57 -43 26 c-46 29 -107 83 -107 96 0 4 16
0 35 -9 47 -22 55 -10 16 23 -32 27 -73 97 -85 146 -10 43 9 77 56 98 93 41
117 88 98 192 -13 65 -12 75 5 117 20 50 34 218 15 191 -5 -8 -10 -32 -10 -52
0 -20 -6 -49 -12 -64 l-13 -28 -5 30 c-6 28 -6 27 -23 -20 -9 -27 -17 -68 -17
-90 0 -30 -3 -37 -10 -26 -15 24 -12 171 5 200 17 30 18 40 5 40 -6 0 -20 -16
-32 -35 -11 -20 -23 -34 -25 -31 -12 12 31 107 65 141 l37 38 -32 -5 c-18 -2
-33 -2 -33 0 0 10 53 77 74 94 11 9 18 19 14 23 -12 13 -83 -27 -120 -67 -21
-23 -38 -36 -38 -30 0 7 23 37 50 67 49 54 50 56 50 119 0 61 2 66 33 90 l32
26 -31 0 c-35 0 -104 -45 -130 -85 -23 -36 -28 -25 -9 21 16 38 233 264 254
264 6 0 11 5 11 10 0 6 -10 10 -22 10 -18 0 -16 4 15 28 20 15 36 30 37 33 0
3 -17 11 -39 17 -21 7 -44 19 -51 27 -16 19 -2 19 44 0 26 -11 67 -15 148 -13
87 1 122 -3 151 -15 46 -21 48 -11 5 26 l-33 28 68 -4 c37 -3 67 -2 65 2 -2 3
-22 43 -46 88 -43 84 -53 114 -27 78 8 -11 33 -43 56 -72z m1266 59 c24 -13
63 -59 63 -74 0 -5 -19 7 -42 26 -23 20 -57 41 -75 48 -18 7 -33 15 -33 19 0
9 59 -4 87 -19z m-1946 -137 c-17 -20 -40 -54 -52 -76 -11 -23 -23 -39 -25
-36 -10 10 28 83 58 115 43 43 58 41 19 -3z m2012 -44 c46 -51 62 -82 87 -172
25 -93 25 -119 -1 -54 -27 66 -77 132 -152 200 -67 62 -61 63 20 3 29 -21 55
-38 58 -38 7 0 -46 83 -60 92 -6 5 -6 8 1 8 7 0 28 -18 47 -39z m-1926 -13
c-40 -53 -65 -110 -88 -199 -12 -46 -24 -86 -27 -89 -2 -3 -2 27 2 65 8 81 46
172 96 228 39 45 52 42 17 -5z m91 -92 c-28 -21 -54 -54 -68 -83 -13 -26 -25
-42 -27 -35 -9 25 36 97 79 125 59 38 70 34 16 -7z m1873 -205 c11 -25 22 -65
25 -90 5 -41 2 -37 -24 35 -16 45 -38 94 -49 110 -34 50 -36 60 -3 24 18 -19
41 -55 51 -79z m35 -273 c8 -15 14 -37 13 -50 0 -17 -5 -11 -15 19 -9 23 -34
63 -56 90 l-42 48 43 -40 c23 -22 49 -52 57 -67z m-1150 -743 c-19 -44 -21
-96 -4 -113 6 -6 9 -14 6 -18 -8 -8 -38 50 -38 73 0 26 44 129 48 111 2 -9 -4
-33 -12 -53z m113 -62 c-10 -49 -5 -89 18 -151 6 -14 4 -15 -8 -5 -12 10 -20
9 -40 -4 -17 -12 -21 -13 -13 -3 7 8 15 49 18 90 3 41 9 100 12 130 6 51 7 53
15 25 6 -18 5 -51 -2 -82z m67 -113 c12 -12 18 -12 35 -2 19 12 19 11 9 -8 -6
-11 -17 -20 -24 -20 -20 0 -66 58 -66 83 0 19 2 18 16 -8 8 -16 22 -37 30 -45z
m-151 -10 c9 0 13 -4 10 -10 -11 -18 -43 -10 -64 16 -31 40 -25 57 8 23 16
-16 37 -29 46 -29z m304 -120 c35 -17 61 -33 58 -36 -3 -3 -31 6 -63 20 -31
14 -72 26 -91 26 -20 0 -32 4 -28 10 11 18 59 10 124 -20z m-284 10 c14 -6 2
-9 -43 -9 -34 -1 -79 -8 -99 -16 -44 -19 -49 -19 -33 0 24 29 130 44 175 25z
m-598 -96 c36 -18 40 -23 18 -18 -55 12 -98 41 -117 79 -8 15 -3 12 20 -8 16
-16 52 -40 79 -53z m861 31 c34 -14 74 -25 89 -26 l28 -1 -27 -10 c-23 -8 -38
-5 -85 18 -32 16 -69 31 -83 35 -21 6 -22 7 -4 8 11 0 48 -10 82 -24z m519
-10 c-28 -25 -114 -56 -151 -54 -12 1 12 12 52 25 41 13 83 31 95 39 33 23 35
17 4 -10z m-1577 -42 c0 -57 -5 -53 -14 11 -5 33 -4 46 3 41 6 -3 11 -27 11
-52z m750 42 c-25 -7 -63 -20 -85 -29 -46 -17 -111 -21 -120 -6 -4 6 12 10 42
10 26 0 66 9 88 19 22 11 58 19 80 20 l40 0 -45 -14z m-290 -10 c-15 -9 -50
-14 -90 -13 l-65 1 72 7 c40 3 76 9 79 13 4 4 12 7 18 7 6 -1 0 -7 -14 -15z
m968 -7 c-16 -10 -119 -10 -135 0 -6 4 24 7 68 8 44 0 74 -3 67 -8z m272 -64
c0 -27 -4 -43 -10 -39 -17 11 -11 85 7 85 2 0 3 -21 3 -46z m-1172 5 c50 -11
70 -11 105 0 75 22 94 22 48 0 -25 -12 -61 -24 -81 -26 -39 -6 -159 21 -175
39 -7 7 -3 9 15 5 14 -3 53 -11 88 -18z m632 7 c63 2 64 1 35 -12 -34 -15 -86
-10 -125 12 l-25 15 25 -8 c14 -4 54 -7 90 -7z m-1149 -140 c-47 -71 -55 -60
-12 17 16 28 33 70 38 92 l8 40 3 -44 c3 -36 -3 -52 -37 -105z m789 140 c0 -2
-20 -16 -44 -30 -52 -30 -127 -49 -140 -35 -6 5 -1 9 15 10 13 0 56 13 94 29
79 33 75 31 75 26z m-410 -26 l45 -9 -57 3 c-31 3 -65 9 -75 15 -19 12 -6 10
87 -9z m1016 -6 c-44 -16 -175 -31 -163 -18 7 7 140 31 182 32 11 0 3 -6 -19
-14z m-332 -20 c19 -8 24 -13 13 -14 -21 0 -87 26 -87 35 0 7 29 -1 74 -21z
m-72 -22 c-10 -3 -72 24 -72 32 0 3 19 -3 41 -12 23 -9 37 -18 31 -20z m-221
7 c-13 -11 -26 -17 -29 -14 -7 6 29 34 43 34 6 0 -1 -9 -14 -20z m704 11 c-8
-13 -74 -47 -144 -74 -44 -18 -56 -28 -65 -54 -6 -17 -14 -32 -18 -32 -11 -1
-56 -47 -68 -70 -19 -35 -40 -24 -40 19 0 58 8 71 44 71 21 0 35 7 45 21 12
21 12 22 -19 15 -20 -4 -39 -1 -48 6 -11 10 -18 7 -34 -15 -26 -35 -36 -34
-53 6 -14 32 -19 29 -27 -18 -3 -17 -11 -20 -46 -18 -23 1 -42 -3 -42 -8 0 -5
-6 -9 -12 -8 -7 1 -21 -2 -32 -6 -33 -14 -51 7 -51 61 l0 49 36 3 c21 2 42 -3
50 -11 14 -13 121 -10 228 9 32 5 42 4 37 -4 -4 -7 -2 -12 4 -12 30 0 158 35
204 55 60 28 59 28 51 15z m-1356 -110 c-12 -22 -24 -38 -26 -36 -3 2 6 36 19
76 22 68 23 70 26 36 2 -24 -5 -50 -19 -76z m1555 -32 c19 -45 20 -142 1 -183
-13 -30 -13 -29 -14 28 -1 35 -8 72 -20 95 -23 45 -46 127 -28 99 7 -10 18
-26 25 -35 12 -15 13 -14 7 8 -4 14 -8 48 -11 75 l-4 50 14 -50 c7 -27 21 -67
30 -87z m-1338 98 c44 -15 134 -30 134 -22 0 3 -12 12 -27 21 l-28 16 30 -6
c138 -30 176 -36 218 -34 33 2 51 -2 57 -11 7 -11 12 -11 23 -2 7 7 17 9 20 5
4 -3 7 3 7 15 0 33 36 28 55 -8 20 -39 20 -84 0 -76 -9 3 -18 -1 -21 -9 -8
-19 -34 -19 -61 0 -14 10 -24 12 -28 5 -9 -15 -41 -12 -55 5 -8 9 -21 13 -32
9 -11 -3 -31 2 -46 12 -15 10 -47 18 -73 18 -42 1 -46 -1 -38 -17 7 -12 17
-15 33 -11 37 9 76 -43 46 -61 -5 -3 -10 -15 -10 -26 0 -23 -15 -25 -24 -4 -3
8 -17 20 -30 25 -16 6 -28 20 -32 37 -3 15 -7 33 -9 40 -2 7 -38 28 -79 47
-42 19 -76 37 -76 40 0 8 2 8 46 -8z m1230 -108 c35 -84 30 -118 -6 -38 -18
40 -29 80 -28 105 0 27 2 32 5 15 3 -14 16 -51 29 -82z m-1510 13 c-15 -35
-26 -80 -26 -108 -1 -39 -3 -45 -11 -29 -19 32 -5 120 25 166 15 23 30 40 32
37 3 -3 -6 -32 -20 -66z m1479 -105 c16 -52 21 -168 5 -131 -7 18 -8 17 -15
-10 -4 -16 -8 -34 -9 -40 -2 -5 -3 35 -3 90 0 81 -4 110 -21 150 l-22 50 25
-30 c14 -16 32 -52 40 -79z m-1285 -3 c-22 -43 -46 -105 -55 -138 l-15 -60 3
56 c2 36 13 77 30 112 26 51 63 107 73 107 2 0 -14 -35 -36 -77z m374 71 c9
-3 16 -13 16 -21 0 -16 33 -10 59 10 10 9 19 5 37 -18 13 -17 24 -24 24 -17 0
9 16 13 53 13 28 0 67 0 86 1 18 0 36 -5 41 -11 5 -8 12 -4 24 14 13 20 22 24
39 19 12 -4 26 -13 31 -21 7 -12 10 -11 20 8 8 17 20 24 41 24 25 0 31 -4 33
-27 2 -19 -1 -28 -10 -28 -8 0 -20 -16 -27 -36 -12 -34 -14 -35 -32 -18 -21
19 -21 19 -38 -13 -14 -27 -28 -29 -53 -6 -18 16 -19 15 -34 -5 -21 -31 -42
-27 -58 11 -13 29 -14 30 -15 8 -1 -13 -4 -22 -7 -18 -4 3 -15 -4 -25 -16 -23
-28 -50 -14 -64 34 -11 39 -42 43 -47 6 -4 -29 -34 -34 -43 -8 -8 25 -22 27
-45 6 -16 -14 -19 -14 -32 7 -19 30 -30 72 -22 92 6 17 22 20 48 10z m835
-211 c1 -45 -3 -85 -9 -88 -6 -4 -10 21 -10 67 -1 40 -7 109 -15 153 -8 44
-14 82 -14 85 1 3 12 -26 24 -65 17 -50 24 -94 24 -152z m-1294 136 c-15 -28
-33 -79 -40 -113 l-12 -61 -8 37 c-9 45 -2 66 44 145 43 73 54 67 16 -8z
m1216 0 c19 -39 26 -123 10 -133 -4 -3 -11 18 -14 47 -3 28 -15 74 -26 101
-17 39 -18 46 -6 36 9 -8 25 -31 36 -51z m-989 -71 c-43 -45 -63 -98 -70 -187
l-5 -76 -14 50 c-18 72 -16 143 7 190 l20 40 -6 -35 -6 -35 42 43 c50 49 79
58 32 10z m908 -193 c-1 -38 -7 -83 -14 -100 -12 -28 -13 -26 -19 55 -3 47 -8
96 -12 110 -5 19 -4 22 4 10 16 -23 14 8 -4 60 -23 64 -17 62 16 -5 24 -49 29
-72 29 -130z m-731 103 c-12 -24 -28 -63 -35 -88 l-14 -45 4 52 c2 38 10 62
30 88 36 47 41 44 15 -7z m626 12 c8 -16 15 -42 14 -57 0 -27 -1 -27 -13 7
-22 59 -28 80 -22 80 3 0 12 -13 21 -30z m-784 -31 c-11 -19 -23 -58 -27 -88
-5 -41 -9 -49 -16 -36 -14 24 -1 84 28 128 31 47 43 43 15 -4z m290 -82 c-10
-47 -16 -88 -13 -92 3 -3 14 7 25 22 18 28 18 28 11 3 -3 -14 -13 -37 -20 -52
-18 -36 -18 -100 1 -145 24 -58 10 -50 -20 11 -25 52 -27 63 -23 144 3 56 13
107 28 145 12 32 24 57 26 54 2 -2 -5 -42 -15 -90z m-96 -6 c-15 -33 -31 -87
-34 -118 l-7 -58 -8 42 c-9 49 3 97 39 159 37 63 42 48 10 -25z m221 -12 c-3
-20 -17 -61 -31 -90 -16 -35 -25 -72 -25 -104 0 -36 -3 -46 -10 -35 -19 29
-11 106 16 165 15 32 29 78 32 103 5 42 6 44 14 22 5 -14 7 -41 4 -61z m139
51 c19 -36 19 -115 0 -155 -15 -30 -15 -30 -10 20 2 28 1 76 -4 108 -4 31 -6
57 -5 57 2 0 10 -13 19 -30z m208 -60 c23 -50 28 -166 9 -210 -9 -20 -10 -12
-5 38 4 41 2 62 -5 62 -6 0 -12 -8 -14 -17 -2 -10 -4 14 -5 52 0 40 -8 87 -17
109 -9 21 -16 41 -16 45 1 12 32 -35 53 -79z m-714 5 c-12 -65 -6 -111 21
-167 22 -46 12 -49 -20 -6 -32 43 -38 119 -15 188 9 28 19 50 21 47 2 -2 -1
-30 -7 -62z m1270 -77 c119 -250 233 -502 272 -600 35 -89 9 -48 -55 85 -35
72 -105 218 -156 322 -124 255 -141 295 -135 306 4 5 8 9 11 9 3 0 31 -55 63
-122z m-670 2 c-2 -103 -17 -111 -18 -10 0 65 2 90 9 80 5 -8 9 -40 9 -70z
m-154 -35 c0 -63 -4 -76 -33 -122 -18 -28 -37 -70 -41 -94 l-9 -44 -1 40 c0
22 8 64 19 93 11 29 20 74 21 100 0 38 2 43 9 25 16 -41 22 -25 15 45 -5 57
-4 64 7 47 7 -11 13 -51 13 -90z m202 -58 c-6 -65 -23 -117 -39 -117 -11 0
-10 2 6 41 8 19 17 58 21 87 10 73 19 65 12 -11z m-125 -82 c-3 -22 -14 -53
-25 -70 -17 -28 -18 -28 -12 -5 3 14 12 56 18 94 9 51 13 62 18 45 4 -13 4
-42 1 -64z"/>
<path d="M3000 6232 c-25 -12 -43 -33 -63 -72 -25 -48 -28 -63 -24 -120 6 -88
39 -169 92 -228 48 -53 102 -81 209 -109 82 -22 111 -12 120 44 24 137 28 148
42 128 13 -17 14 -16 14 17 0 53 -33 150 -71 209 -35 55 -114 120 -168 138
-49 16 -111 14 -151 -7z"/>
<path d="M5917 6100 c-119 -30 -231 -132 -271 -246 -14 -41 -14 -43 18 -95 18
-30 45 -85 61 -122 34 -77 45 -83 131 -74 118 12 223 86 276 195 29 58 33 76
33 147 0 89 -20 143 -67 178 -29 22 -124 31 -181 17z"/>
<path d="M3918 5060 c-4 -43 17 -110 34 -110 6 0 7 8 3 18 -4 9 -9 43 -12 75
-7 66 -19 75 -25 17z"/>
<path d="M5270 5014 c0 -9 -14 -47 -31 -86 -33 -76 -33 -94 0 -52 29 37 61
154 42 154 -6 0 -11 -7 -11 -16z"/>
<path d="M4561 4900 c-13 -58 -14 -85 -5 -129 12 -59 20 -31 21 74 0 58 -1
105 -2 105 -2 0 -8 -23 -14 -50z"/>
<path d="M4030 4840 c0 -19 52 -90 66 -90 24 0 15 21 -26 61 -22 22 -40 34
-40 29z"/>
<path d="M5051 4819 c-30 -16 -63 -29 -75 -29 -21 0 -60 -20 -40 -20 38 0 126
26 150 45 43 35 26 37 -35 4z"/>
<path d="M4333 4761 c-63 -25 -60 -28 24 -23 l78 4 48 -42 c49 -43 58 -40 32
10 -17 33 -81 71 -117 69 -13 -1 -42 -9 -65 -18z"/>
<path d="M4641 4754 c-38 -32 -41 -53 -4 -29 21 14 41 17 105 12 43 -3 80 -2
83 3 5 8 -99 40 -132 40 -12 0 -35 -12 -52 -26z"/>
<path d="M4035 4725 c-5 -2 -27 -6 -47 -10 -40 -6 -85 -39 -119 -86 -28 -40
-13 -36 43 10 33 27 68 44 115 56 90 24 108 35 58 34 -22 0 -44 -2 -50 -4z"/>
<path d="M5110 4701 c0 -5 15 -14 33 -20 17 -6 54 -32 80 -57 45 -44 75 -55
46 -17 -7 10 1 5 19 -11 17 -16 34 -27 38 -24 12 12 -68 86 -114 106 -61 25
-102 35 -102 23z"/>
<path d="M4152 4672 c-10 -6 -2 -11 25 -15 57 -10 89 -9 78 2 -14 14 -88 23
-103 13z"/>
<path d="M4835 4653 c-44 -24 -18 -26 40 -3 44 17 47 19 20 19 -16 0 -43 -7
-60 -16z"/>
<path d="M4860 4571 c-14 -5 -50 -20 -81 -34 -67 -32 -81 -33 -138 -7 -24 11
-46 18 -49 15 -13 -12 48 -57 89 -66 40 -9 49 -7 114 26 113 59 144 90 65 66z"/>
<path d="M3986 4561 c-5 -7 7 -11 36 -11 24 -1 54 -7 67 -14 23 -13 23 -14 5
-24 -10 -5 -55 -13 -99 -17 -81 -7 -139 -29 -166 -61 -13 -16 -12 -17 11 -10
14 4 43 9 65 12 l40 4 -38 -14 c-60 -24 -93 -53 -111 -96 -9 -24 -22 -40 -32
-40 -14 0 -16 8 -11 53 3 28 9 61 13 71 5 13 4 17 -4 13 -25 -16 -45 -108 -37
-171 20 -159 21 -163 32 -137 12 31 22 17 32 -47 l8 -47 8 40 c6 28 3 58 -7
100 -9 32 -13 65 -11 73 10 25 27 5 39 -47 6 -29 25 -72 42 -96 l30 -42 -35
-17 c-20 -9 -33 -19 -31 -22 8 -8 150 17 188 33 49 21 90 33 90 26 0 -4 -7
-15 -17 -25 -9 -10 -11 -18 -5 -18 20 0 97 38 151 74 59 40 73 44 64 19 -6
-16 -5 -17 12 -3 39 30 66 67 96 128 25 52 33 61 45 51 12 -10 14 -4 14 37 1
64 17 84 66 84 57 -1 70 -15 77 -90 11 -116 27 -135 42 -47 3 20 9 37 13 37 4
0 16 -25 27 -56 24 -71 89 -147 117 -138 14 4 28 -2 46 -19 39 -36 144 -97
167 -97 18 1 17 3 -9 26 -40 36 -27 40 33 10 39 -20 65 -26 115 -26 36 0 76
-4 90 -10 37 -14 33 5 -8 32 l-34 23 24 28 c13 16 29 48 35 72 16 65 29 46 22
-34 -4 -46 -2 -70 6 -75 7 -5 11 1 11 16 0 13 5 30 11 38 9 13 11 13 16 1 8
-20 42 115 42 169 1 64 -16 87 -25 34 -3 -23 -10 -47 -14 -54 -15 -24 -39 -2
-46 41 -5 31 -18 52 -47 80 -22 22 -36 39 -33 39 13 0 51 -22 74 -43 28 -26
30 -5 3 39 -27 44 -96 73 -197 83 -53 5 -92 14 -101 24 -13 13 -10 16 29 31
l43 16 -65 -3 c-58 -3 -76 -9 -168 -61 -90 -52 -106 -57 -139 -51 -63 12 -119
43 -134 77 l-15 31 -22 -37 c-24 -40 -87 -75 -136 -76 -19 0 -65 22 -125 58
-93 56 -96 57 -182 60 -55 3 -89 0 -93 -7z m379 -267 c-16 -42 -50 -76 -105
-104 -16 -8 -7 5 25 37 28 27 59 69 70 93 24 54 33 33 10 -26z m401 -20 c16
-26 45 -57 64 -70 19 -13 28 -24 20 -24 -26 0 -61 30 -91 78 -27 42 -35 62
-25 62 2 0 16 -21 32 -46z m-887 -2 c25 -50 67 -90 105 -101 29 -9 30 -10 9
-16 -13 -4 -23 -11 -23 -16 0 -11 32 -12 62 0 90 33 99 17 10 -18 -48 -19 -55
-20 -82 -6 -41 21 -79 76 -96 137 -16 61 -15 58 -9 58 2 0 13 -17 24 -38z
m1351 -63 c-14 -49 -56 -93 -106 -109 -30 -10 -43 -9 -80 5 -53 20 -52 31 1
16 29 -8 36 -7 32 3 -4 10 8 15 41 19 56 6 87 37 105 105 8 31 13 39 15 25 2
-12 -2 -41 -8 -64z m-1177 0 c44 0 56 -3 42 -9 -42 -18 -102 -11 -134 16 -17
14 -31 30 -31 36 0 5 14 -2 31 -16 25 -22 41 -26 92 -27z m1128 23 c-26 -48
-113 -79 -156 -55 -13 8 -2 11 46 16 51 5 68 12 84 31 23 29 40 34 26 8z"/>
<path d="M4296 4515 c61 -44 86 -51 135 -36 54 16 51 34 -5 26 -36 -6 -56 -2
-102 19 -77 36 -87 33 -28 -9z"/>
<path d="M5186 4542 c5 -5 36 -24 69 -41 l60 -33 -42 41 c-29 28 -51 41 -70
41 -15 0 -23 -4 -17 -8z"/>
<path d="M3853 4518 c-51 -36 -47 -50 5 -22 59 31 72 44 46 44 -10 0 -34 -10
-51 -22z"/>
<path d="M4558 4375 c-8 -9 3 -88 13 -99 5 -6 9 9 9 35 0 44 -11 75 -22 64z"/>
<path d="M4667 4213 c-13 -20 21 -102 69 -167 27 -36 50 -63 52 -62 6 7 -27
77 -59 124 -18 26 -37 62 -44 81 -6 19 -15 30 -18 24z"/>
<path d="M4384 4128 c-53 -76 -69 -108 -55 -108 12 0 111 149 111 166 0 8 -1
14 -3 14 -2 0 -26 -33 -53 -72z"/>
<path d="M4216 4025 c-27 -18 -72 -39 -100 -46 -28 -6 -77 -25 -108 -41 -48
-25 -63 -29 -100 -23 -35 6 -41 5 -30 -6 19 -20 110 -15 162 9 54 26 71 28 63
6 -5 -13 1 -12 35 5 23 12 45 21 50 21 5 0 12 -17 14 -37 7 -45 36 -119 44
-110 4 3 1 20 -5 38 -17 48 -13 83 14 151 14 34 25 63 25 65 0 8 -19 -1 -64
-32z"/>
<path d="M4820 4051 c0 -6 12 -42 27 -82 24 -66 25 -75 14 -121 -7 -27 -11
-51 -8 -54 9 -10 57 89 57 118 l0 30 68 -6 c37 -4 75 -10 85 -12 25 -8 21 15
-5 26 -13 5 -39 11 -59 14 -19 4 -66 26 -104 51 -74 49 -75 49 -75 36z"/>
<path d="M3590 4011 c-16 -32 -12 -68 13 -97 32 -37 56 -28 27 9 -23 29 -28
60 -16 90 11 24 -11 22 -24 -2z"/>
<path d="M5402 4013 c-20 -18 -39 -63 -27 -63 8 0 41 37 56 63 5 10 6 17 0 17
-5 0 -18 -8 -29 -17z"/>
<path d="M5481 3983 c-6 -21 -11 -43 -11 -48 0 -6 -9 -28 -21 -49 -24 -45 -22
-51 7 -27 31 25 54 74 54 115 0 49 -17 54 -29 9z"/>
<path d="M4342 3973 c-11 -16 -27 -43 -36 -61 -16 -31 -16 -35 3 -77 11 -25
22 -45 24 -45 3 0 3 27 0 59 -5 52 -2 65 21 105 29 50 20 64 -12 19z"/>
<path d="M4734 3974 c3 -16 9 -57 13 -91 3 -34 10 -60 15 -57 5 3 6 -7 3 -23
-6 -27 -6 -27 9 -9 22 27 20 79 -4 126 -11 22 -20 46 -20 54 0 8 -5 18 -11 22
-9 5 -10 -1 -5 -22z"/>
<path d="M5113 3956 c20 -19 39 -26 67 -26 47 0 140 19 140 29 0 4 -42 7 -92
7 -51 0 -104 3 -118 8 l-25 8 28 -26z"/>
<path d="M3864 3834 c-18 -14 -17 -15 20 -9 39 7 116 -18 116 -37 0 -10 -3
-10 -34 2 -15 5 -26 6 -26 0 0 -15 23 -24 80 -31 30 -4 64 -10 75 -15 36 -14
-1 21 -69 65 -69 45 -126 54 -162 25z"/>
<path d="M5090 3805 c-67 -46 -99 -75 -82 -75 7 0 25 6 40 14 15 8 50 17 77
21 71 10 91 24 36 25 -24 0 -42 3 -38 6 3 4 40 6 81 5 41 -1 77 3 80 8 8 12
-12 19 -81 26 -55 7 -61 5 -113 -30z"/>
<path d="M5050 6591 c0 -11 26 -22 34 -14 3 3 3 10 0 14 -7 12 -34 11 -34 0z"/>
<path d="M5095 6530 c3 -5 8 -10 11 -10 2 0 4 5 4 10 0 6 -5 10 -11 10 -5 0
-7 -4 -4 -10z"/>
<path d="M6653 6523 c9 -2 23 -2 30 0 6 3 -1 5 -18 5 -16 0 -22 -2 -12 -5z"/>
<path d="M5115 6500 c-3 -5 -1 -10 4 -10 6 0 11 5 11 10 0 6 -2 10 -4 10 -3 0
-8 -4 -11 -10z"/>
<path d="M5145 6480 c-3 -5 -1 -10 4 -10 6 0 11 5 11 10 0 6 -2 10 -4 10 -3 0
-8 -4 -11 -10z"/>
<path d="M5870 6350 l-25 -8 28 -1 c15 -1 27 4 27 9 0 6 -1 10 -2 9 -2 -1 -14
-5 -28 -9z"/>
<path d="M6175 6350 c-18 -8 -17 -9 8 -9 15 -1 27 4 27 9 0 12 -8 12 -35 0z"/>
<path d="M6320 6315 c7 -8 19 -15 26 -15 8 0 14 7 14 15 0 10 -10 15 -26 15
-22 0 -25 -2 -14 -15z"/>
<path d="M6040 5370 c20 -13 33 -13 25 0 -3 6 -14 10 -23 10 -15 0 -15 -2 -2
-10z"/>
<path d="M3037 5273 c-10 -9 -9 -23 2 -23 5 0 11 7 15 15 5 15 -5 20 -17 8z"/>
<path d="M5970 5204 c0 -8 5 -12 10 -9 6 4 8 11 5 16 -9 14 -15 11 -15 -7z"/>
<path d="M5850 5140 c0 -5 5 -10 10 -10 6 0 10 5 10 10 0 6 -4 10 -10 10 -5 0
-10 -4 -10 -10z"/>
<path d="M3020 5130 c0 -5 5 -10 10 -10 6 0 10 5 10 10 0 6 -4 10 -10 10 -5 0
-10 -4 -10 -10z"/>
<path d="M5870 5080 c0 -5 7 -10 16 -10 8 0 12 5 9 10 -3 6 -10 10 -16 10 -5
0 -9 -4 -9 -10z"/>
<path d="M6015 5070 c3 -5 8 -10 11 -10 2 0 4 5 4 10 0 6 -5 10 -11 10 -5 0
-7 -4 -4 -10z"/>
<path d="M6160 5056 c0 -9 5 -16 10 -16 6 0 10 4 10 9 0 6 -4 13 -10 16 -5 3
-10 -1 -10 -9z"/>
<path d="M2790 5001 c0 -11 4 -22 9 -25 11 -7 23 22 15 35 -9 16 -24 10 -24
-10z"/>
<path d="M2955 4961 c-3 -5 -1 -12 5 -16 5 -3 10 1 10 9 0 18 -6 21 -15 7z"/>
<path d="M2882 4894 c2 -15 9 -29 16 -32 10 -3 13 4 10 24 -2 15 -9 29 -16 32
-10 3 -13 -4 -10 -24z"/>
<path d="M6190 4846 c0 -8 5 -18 10 -21 6 -3 10 3 10 14 0 12 -4 21 -10 21 -5
0 -10 -6 -10 -14z"/>
<path d="M6216 4815 c-8 -22 -9 -21 18 -39 34 -21 39 -7 11 27 -19 24 -23 26
-29 12z"/>
<path d="M2931 4782 c-15 -28 -14 -42 3 -42 18 0 28 28 17 47 -7 14 -10 13
-20 -5z"/>
<path d="M6351 4784 c0 -11 3 -14 6 -6 3 7 2 16 -1 19 -3 4 -6 -2 -5 -13z"/>
<path d="M6255 4731 c-3 -5 -1 -12 5 -16 5 -3 10 1 10 9 0 18 -6 21 -15 7z"/>
<path d="M2780 4700 c0 -5 5 -10 10 -10 6 0 10 5 10 10 0 6 -4 10 -10 10 -5 0
-10 -4 -10 -10z"/>
<path d="M2237 4656 c-16 -13 -16 -14 -1 -20 20 -8 27 -3 22 18 -2 12 -6 13
-21 2z"/>
<path d="M6355 4580 c-4 -6 -3 -16 3 -22 13 -13 23 4 13 21 -7 10 -10 10 -16
1z"/>
<path d="M6390 4564 c0 -8 5 -12 10 -9 6 3 10 10 10 16 0 5 -4 9 -10 9 -5 0
-10 -7 -10 -16z"/>
<path d="M2690 4544 c0 -8 5 -12 10 -9 6 3 10 10 10 16 0 5 -4 9 -10 9 -5 0
-10 -7 -10 -16z"/>
<path d="M6120 4548 c0 -7 5 -20 10 -28 8 -12 10 -11 10 7 0 12 -4 25 -10 28
-5 3 -10 0 -10 -7z"/>
<path d="M6410 4530 c0 -5 7 -10 16 -10 8 0 12 5 9 10 -3 6 -10 10 -16 10 -5
0 -9 -4 -9 -10z"/>
<path d="M2653 4513 c-18 -7 -16 -23 2 -23 8 0 15 7 15 15 0 8 -1 15 -2 14 -2
0 -9 -3 -15 -6z"/>
<path d="M6403 4483 c-18 -7 -16 -20 2 -20 8 0 15 6 15 14 0 7 -1 13 -2 12 -2
0 -9 -3 -15 -6z"/>
<path d="M3005 4401 c-3 -5 -1 -12 5 -16 5 -3 10 1 10 9 0 18 -6 21 -15 7z"/>
<path d="M6420 4396 c0 -9 5 -16 10 -16 6 0 10 4 10 9 0 6 -4 13 -10 16 -5 3
-10 -1 -10 -9z"/>
<path d="M5687 4300 c-3 -11 -1 -20 4 -20 5 0 9 9 9 20 0 11 -2 20 -4 20 -2 0
-6 -9 -9 -20z"/>
<path d="M6345 4300 c-17 -19 -17 -20 2 -20 12 0 23 7 26 15 9 23 -9 26 -28 5z"/>
<path d="M2620 4241 c0 -6 5 -13 10 -16 6 -3 10 1 10 9 0 9 -4 16 -10 16 -5 0
-10 -4 -10 -9z"/>
<path d="M6110 4170 c0 -5 5 -10 10 -10 6 0 10 5 10 10 0 6 -4 10 -10 10 -5 0
-10 -4 -10 -10z"/>
<path d="M2785 4161 c-3 -5 -1 -12 5 -16 5 -3 10 1 10 9 0 18 -6 21 -15 7z"/>
<path d="M2890 4128 c0 -9 -5 -18 -12 -20 -6 -2 -8 -10 -4 -16 13 -21 39 14
27 35 -9 16 -10 16 -11 1z"/>
<path d="M3352 4075 c0 -16 2 -22 5 -12 2 9 2 23 0 30 -3 6 -5 -1 -5 -18z"/>
<path d="M6225 4069 c-12 -19 5 -23 22 -6 16 16 16 17 1 17 -9 0 -20 -5 -23
-11z"/>
<path d="M2830 4054 c0 -8 5 -12 10 -9 6 3 10 10 10 16 0 5 -4 9 -10 9 -5 0
-10 -7 -10 -16z"/>
<path d="M5930 4045 c0 -8 2 -15 4 -15 2 0 6 7 10 15 3 8 1 15 -4 15 -6 0 -10
-7 -10 -15z"/>
<path d="M6191 4000 c0 -29 1 -32 10 -17 7 11 7 23 0 35 -9 14 -10 11 -10 -18z"/>
<path d="M2920 3970 c0 -5 5 -10 10 -10 6 0 10 5 10 10 0 6 -4 10 -10 10 -5 0
-10 -4 -10 -10z"/>
<path d="M3286 3768 c16 -18 32 -37 36 -42 5 -6 8 -6 8 0 0 13 -54 74 -65 74
-5 0 4 -15 21 -32z"/>
<path d="M3084 3644 c3 -9 6 -18 6 -20 0 -2 5 -4 10 -4 6 0 10 9 10 20 0 12
-7 20 -16 20 -11 0 -14 -5 -10 -16z"/>
<path d="M5720 3549 c0 -5 5 -7 10 -4 6 3 10 8 10 11 0 2 -4 4 -10 4 -5 0 -10
-5 -10 -11z"/>
<path d="M5996 3533 c-6 -14 -5 -15 5 -6 7 7 10 15 7 18 -3 3 -9 -2 -12 -12z"/>
<path d="M5540 3523 c0 -10 5 -25 10 -33 7 -11 10 -7 10 18 0 17 -4 32 -10 32
-5 0 -10 -8 -10 -17z"/>
<path d="M3390 3460 c0 -5 5 -10 10 -10 6 0 10 5 10 10 0 6 -4 10 -10 10 -5 0
-10 -4 -10 -10z"/>
<path d="M3480 3439 c0 -5 5 -7 10 -4 6 3 10 8 10 11 0 2 -4 4 -10 4 -5 0 -10
-5 -10 -11z"/>
<path d="M3270 3420 c0 -5 5 -10 10 -10 6 0 10 5 10 10 0 6 -4 10 -10 10 -5 0
-10 -4 -10 -10z"/>
<path d="M3430 3400 c0 -5 5 -10 10 -10 6 0 10 5 10 10 0 6 -4 10 -10 10 -5 0
-10 -4 -10 -10z"/>
<path d="M5704 3276 c-7 -20 2 -46 16 -46 13 0 13 47 0 55 -6 3 -13 -1 -16 -9z"/>
<path d="M3350 3260 c0 -11 5 -20 10 -20 6 0 10 9 10 20 0 11 -4 20 -10 20 -5
0 -10 -9 -10 -20z"/>
<path d="M5700 3204 c0 -8 5 -12 10 -9 6 4 8 11 5 16 -9 14 -15 11 -15 -7z"/>
<path d="M3525 2859 c-9 -39 1 -50 15 -15 12 34 13 46 1 46 -5 0 -12 -14 -16
-31z"/>
<path d="M2090 2731 c0 -6 5 -13 10 -16 6 -3 10 1 10 9 0 9 -4 16 -10 16 -5 0
-10 -4 -10 -9z"/>
<path d="M5031 2434 c0 -11 3 -14 6 -6 3 7 2 16 -1 19 -3 4 -6 -2 -5 -13z"/>
<path d="M2340 2430 c0 -5 5 -10 11 -10 5 0 7 5 4 10 -3 6 -8 10 -11 10 -2 0
-4 -4 -4 -10z"/>
<path d="M5166 2404 c-4 -9 -4 -19 -2 -21 8 -8 26 8 26 23 0 19 -16 18 -24 -2z"/>
<path d="M5116 2381 c-4 -5 -2 -12 3 -15 5 -4 12 -2 15 3 4 5 2 12 -3 15 -5 4
-12 2 -15 -3z"/>
<path d="M4075 2370 c3 -5 11 -10 16 -10 6 0 7 5 4 10 -3 6 -11 10 -16 10 -6
0 -7 -4 -4 -10z"/>
<path d="M3722 2258 c-18 -18 -15 -28 8 -28 21 0 25 7 12 27 -6 10 -11 10 -20
1z"/>
<path d="M4037 2204 c-8 -8 1 -24 14 -24 5 0 9 7 9 15 0 15 -12 20 -23 9z"/>
<path d="M4075 2161 c-3 -5 -1 -12 5 -16 5 -3 10 1 10 9 0 18 -6 21 -15 7z"/>
<path d="M4130 2033 c0 -5 4 -14 9 -21 7 -11 9 -11 14 1 3 8 3 18 0 21 -9 8
-23 7 -23 -1z"/>
<path d="M4890 1955 c0 -8 5 -15 10 -15 6 0 10 7 10 15 0 8 -4 15 -10 15 -5 0
-10 -7 -10 -15z"/>
<path d="M4810 1896 c0 -8 5 -18 10 -21 6 -3 10 1 10 9 0 8 -4 18 -10 21 -5 3
-10 -1 -10 -9z"/>
<path d="M4355 1650 c3 -5 8 -10 11 -10 2 0 4 5 4 10 0 6 -5 10 -11 10 -5 0
-7 -4 -4 -10z"/>
<path d="M4600 1530 c0 -5 5 -10 10 -10 6 0 10 5 10 10 0 6 -4 10 -10 10 -5 0
-10 -4 -10 -10z"/>
<path d="M7105 1350 c-3 -5 1 -10 10 -10 9 0 13 5 10 10 -3 6 -8 10 -10 10 -2
0 -7 -4 -10 -10z"/>
<path d="M4450 1296 c25 -23 37 -19 26 9 -3 8 -16 15 -28 15 l-23 0 25 -24z"/>
<path d="M6080 1165 c0 -26 6 -30 28 -16 11 6 10 11 -3 25 -22 21 -25 20 -25
-9z"/>
<path d="M6990 804 c0 -8 5 -12 10 -9 6 4 8 11 5 16 -9 14 -15 11 -15 -7z"/>
</g>
</svg>
